<?xml version='1.0' encoding='utf-8'?>
<svg xmlns="http://www.w3.org/2000/svg" width="716" height="554.67" viewBox="-37.87 -36.95 715.73 554.81" shape-rendering="crispEdges">
<defs>
    <pattern id="gridMinor" width="40" height="40" patternUnits="userSpaceOnUse">
      <path d="M 40 0 L 0 0 0 40" fill="none" stroke="#94a3b8" stroke-width="1.4" />
    </pattern>
    <pattern id="gridMajor" width="200" height="200" patternUnits="userSpaceOnUse">
      <path d="M 200 0 L 0 0 0 200" fill="none" stroke="#64748b" stroke-width="1.4" />
    </pattern></defs>
<rect width="715.73" height="554.81" fill="white" x="-37.87" y="-36.95" />
<rect width="715.73" height="554.81" fill="url(#gridMinor)" x="-37.87" y="-36.95" />
<rect width="715.73" height="554.81" fill="url(#gridMajor)" x="-37.87" y="-36.95" />
<line x1="0" y1="160" x2="160" y2="160" stroke="#111111" stroke-width="2.1" stroke-linecap="square" stroke-dasharray="6 4" />
<line x1="160" y1="160" x2="160" y2="320" stroke="#111111" stroke-width="2.1" stroke-linecap="square" stroke-dasharray="6 4" />
<line x1="160" y1="320" x2="0" y2="320" stroke="#111111" stroke-width="4.9" stroke-linecap="square" />
<line x1="0" y1="320" x2="0" y2="160" stroke="#111111" stroke-width="4.9" stroke-linecap="square" />
<line x1="160" y1="160" x2="320" y2="160" stroke="#111111" stroke-width="4.9" stroke-linecap="square" />
<line x1="320" y1="160" x2="320" y2="320" stroke="#111111" stroke-width="2.1" stroke-linecap="square" stroke-dasharray="6 4" />
<line x1="320" y1="320" x2="160" y2="320" stroke="#111111" stroke-width="4.9" stroke-linecap="square" />
<line x1="320" y1="160" x2="480" y2="160" stroke="#111111" stroke-width="4.9" stroke-linecap="square" />
<line x1="480" y1="160" x2="480" y2="320" stroke="#111111" stroke-width="2.1" stroke-linecap="square" stroke-dasharray="6 4" />
<line x1="480" y1="320" x2="320" y2="320" stroke="#111111" stroke-width="2.1" stroke-linecap="square" stroke-dasharray="6 4" />
<line x1="480" y1="160" x2="640" y2="160" stroke="#111111" stroke-width="4.9" stroke-linecap="square" />
<line x1="640" y1="160" x2="640" y2="320" stroke="#111111" stroke-width="4.9" stroke-linecap="square" />
<line x1="640" y1="320" x2="480" y2="320" stroke="#111111" stroke-width="4.9" stroke-linecap="square" />
<line x1="0" y1="0" x2="160" y2="0" stroke="#111111" stroke-width="4.9" stroke-linecap="square" />
<line x1="160" y1="0" x2="160" y2="160" stroke="#111111" stroke-width="4.9" stroke-linecap="square" />
<line x1="0" y1="160" x2="0" y2="0" stroke="#111111" stroke-width="4.9" stroke-linecap="square" />
<line x1="480" y1="320" x2="480" y2="480" stroke="#111111" stroke-width="4.9" stroke-linecap="square" />
<line x1="480" y1="480" x2="320" y2="480" stroke="#111111" stroke-width="4.9" stroke-linecap="square" />
<line x1="320" y1="480" x2="320" y2="320" stroke="#111111" stroke-width="4.9" stroke-linecap="square" />
<g data-point-labels="true" font-family="sans-serif" font-size="18.67" font-weight="700" fill="#111111" text-anchor="middle" dominant-baseline="middle"><text x="-11.32" y="-11.32">ㄱ</text><text x="144.92" y="-15.08">ㄴ</text><text x="144.92" y="144.92">ㄷ</text><text x="320" y="144">ㄹ</text><text x="495.08" y="144.92">ㅁ</text><text x="656" y="160">ㅂ</text><text x="656" y="320">ㅅ</text><text x="495.08" y="335.08">ㅇ</text><text x="491.32" y="491.32">ㅈ</text><text x="320" y="496">ㅊ</text><text x="335.08" y="335.08">ㅋ</text><text x="144.92" y="335.08">ㅌ</text><text x="-16" y="320">ㅍ</text><text x="-16" y="160">ㅎ</text></g></svg>