<?xml version="1.0" encoding="UTF-8"?>
<svg xmlns="http://www.w3.org/2000/svg" width="520" height="360" viewBox="0 0 520 360" shape-rendering="crispEdges">
<rect width="100%" height="100%" fill="white" />
<line x1="120" y1="80" x2="280" y2="80" stroke="#111111" stroke-width="1.5" stroke-linecap="square" stroke-dasharray="6 4" />
<line x1="280" y1="80" x2="280" y2="200" stroke="#111111" stroke-width="1.5" stroke-linecap="square" stroke-dasharray="6 4" />
<line x1="280" y1="200" x2="120" y2="200" stroke="#111111" stroke-width="3.5" stroke-linecap="square"  />
<line x1="120" y1="200" x2="120" y2="80" stroke="#111111" stroke-width="3.5" stroke-linecap="square"  />
<line x1="280" y1="80" x2="360" y2="80" stroke="#111111" stroke-width="3.5" stroke-linecap="square"  />
<line x1="360" y1="80" x2="360" y2="200" stroke="#111111" stroke-width="1.5" stroke-linecap="square" stroke-dasharray="6 4" />
<line x1="360" y1="200" x2="280" y2="200" stroke="#111111" stroke-width="1.5" stroke-linecap="square" stroke-dasharray="6 4" />
<line x1="360" y1="80" x2="520" y2="80" stroke="#111111" stroke-width="3.5" stroke-linecap="square"  />
<line x1="520" y1="80" x2="520" y2="200" stroke="#111111" stroke-width="3.5" stroke-linecap="square"  />
<line x1="520" y1="200" x2="360" y2="200" stroke="#111111" stroke-width="3.5" stroke-linecap="square"  />
<line x1="120" y1="0" x2="280" y2="0" stroke="#111111" stroke-width="3.5" stroke-linecap="square"  />
<line x1="280" y1="0" x2="280" y2="80" stroke="#111111" stroke-width="3.5" stroke-linecap="square"  />
<line x1="120" y1="80" x2="120" y2="0" stroke="#111111" stroke-width="1.5" stroke-linecap="square" stroke-dasharray="6 4" />
<line x1="0" y1="0" x2="120" y2="0" stroke="#111111" stroke-width="3.5" stroke-linecap="square"  />
<line x1="120" y1="80" x2="0" y2="80" stroke="#111111" stroke-width="3.5" stroke-linecap="square"  />
<line x1="0" y1="80" x2="0" y2="0" stroke="#111111" stroke-width="3.5" stroke-linecap="square"  />
<line x1="360" y1="200" x2="360" y2="360" stroke="#111111" stroke-width="3.5" stroke-linecap="square"  />
<line x1="360" y1="360" x2="280" y2="360" stroke="#111111" stroke-width="3.5" stroke-linecap="square"  />
<line x1="280" y1="360" x2="280" y2="200" stroke="#111111" stroke-width="3.5" stroke-linecap="square"  />
</svg>