<?xml version='1.0' encoding='utf-8'?>
<svg xmlns="http://www.w3.org/2000/svg" width="544" height="503" viewBox="-32.00 -31.31 544.00 502.62" shape-rendering="crispEdges">
<defs>
    <pattern id="gridMinor" width="40" height="40" patternUnits="userSpaceOnUse">
      <path d="M 40 0 L 0 0 0 40" fill="none" stroke="#94a3b8" stroke-width="1.4" />
    </pattern>
    <pattern id="gridMajor" width="200" height="200" patternUnits="userSpaceOnUse">
      <path d="M 200 0 L 0 0 0 200" fill="none" stroke="#64748b" stroke-width="1.4" />
    </pattern></defs>
<rect width="544.00" height="502.62" fill="white" x="-32.00" y="-31.31" />
<rect width="544.00" height="502.62" fill="url(#gridMinor)" x="-32.00" y="-31.31" />
<rect width="544.00" height="502.62" fill="url(#gridMajor)" x="-32.00" y="-31.31" />
<line x1="0" y1="160" x2="80" y2="160" stroke="#111111" stroke-width="2.1" stroke-linecap="square" stroke-dasharray="6 4" />
<line x1="80" y1="160" x2="80" y2="280" stroke="#111111" stroke-width="2.1" stroke-linecap="square" stroke-dasharray="6 4" />
<line x1="80" y1="280" x2="0" y2="280" stroke="#111111" stroke-width="2.1" stroke-linecap="square" stroke-dasharray="6 4" />
<line x1="0" y1="280" x2="0" y2="160" stroke="#111111" stroke-width="4.9" stroke-linecap="square" />
<line x1="80" y1="160" x2="240" y2="160" stroke="#111111" stroke-width="4.9" stroke-linecap="square" />
<line x1="240" y1="160" x2="240" y2="280" stroke="#111111" stroke-width="2.1" stroke-linecap="square" stroke-dasharray="6 4" />
<line x1="240" y1="280" x2="80" y2="280" stroke="#111111" stroke-width="4.9" stroke-linecap="square" />
<line x1="240" y1="160" x2="320" y2="160" stroke="#111111" stroke-width="4.9" stroke-linecap="square" />
<line x1="320" y1="160" x2="320" y2="280" stroke="#111111" stroke-width="2.1" stroke-linecap="square" stroke-dasharray="6 4" />
<line x1="320" y1="280" x2="240" y2="280" stroke="#111111" stroke-width="4.9" stroke-linecap="square" />
<line x1="320" y1="160" x2="480" y2="160" stroke="#111111" stroke-width="4.9" stroke-linecap="square" />
<line x1="480" y1="160" x2="480" y2="280" stroke="#111111" stroke-width="4.9" stroke-linecap="square" />
<line x1="480" y1="280" x2="320" y2="280" stroke="#111111" stroke-width="4.9" stroke-linecap="square" />
<line x1="0" y1="0" x2="80" y2="0" stroke="#111111" stroke-width="4.9" stroke-linecap="square" />
<line x1="80" y1="0" x2="80" y2="160" stroke="#111111" stroke-width="4.9" stroke-linecap="square" />
<line x1="0" y1="160" x2="0" y2="0" stroke="#111111" stroke-width="4.9" stroke-linecap="square" />
<line x1="80" y1="280" x2="80" y2="440" stroke="#111111" stroke-width="4.9" stroke-linecap="square" />
<line x1="80" y1="440" x2="0" y2="440" stroke="#111111" stroke-width="4.9" stroke-linecap="square" />
<line x1="0" y1="440" x2="0" y2="280" stroke="#111111" stroke-width="4.9" stroke-linecap="square" />
<g data-point-labels="true" font-family="sans-serif" font-size="20" font-weight="700" fill="#111111" text-anchor="middle" dominant-baseline="middle"><text x="-8.49" y="-8.49">ㄱ</text><text x="68.69" y="-11.31">ㄴ</text><text x="68.69" y="148.69">ㄷ</text><text x="251.31" y="148.69">ㄹ</text><text x="331.31" y="148.69">ㅁ</text><text x="492.00" y="160.00">ㅂ</text><text x="492.00" y="280.00">ㅅ</text><text x="331.31" y="291.31">ㅇ</text><text x="251.31" y="291.31">ㅈ</text><text x="68.69" y="291.31">ㅊ</text><text x="68.69" y="451.31">ㅋ</text><text x="-8.49" y="448.49">ㅌ</text><text x="-12.00" y="280.00">ㅍ</text><text x="-12.00" y="160.00">ㅎ</text></g></svg>