<?xml version='1.0' encoding='utf-8'?>
<svg xmlns="http://www.w3.org/2000/svg" width="464" height="464" viewBox="-32.00 -32.00 464.00 464.00" shape-rendering="crispEdges">
<defs>
    <pattern id="gridMinor" width="40" height="40" patternUnits="userSpaceOnUse">
      <path d="M 40 0 L 0 0 0 40" fill="none" stroke="#94a3b8" stroke-width="1.4" />
    </pattern>
    <pattern id="gridMajor" width="200" height="200" patternUnits="userSpaceOnUse">
      <path d="M 200 0 L 0 0 0 200" fill="none" stroke="#64748b" stroke-width="1.4" />
    </pattern></defs>
<rect width="464.00" height="464.00" fill="white" x="-32.00" y="-32.00" />
<rect width="464.00" height="464.00" fill="url(#gridMinor)" x="-32.00" y="-32.00" />
<rect width="464.00" height="464.00" fill="url(#gridMajor)" x="-32.00" y="-32.00" />
<line x1="0" y1="120" x2="120" y2="120" stroke="#111111" stroke-width="4.9" stroke-linecap="square" />
<line x1="120" y1="120" x2="120" y2="280" stroke="#111111" stroke-width="2.1" stroke-linecap="square" stroke-dasharray="6 4" />
<line x1="120" y1="280" x2="0" y2="280" stroke="#111111" stroke-width="4.9" stroke-linecap="square" />
<line x1="0" y1="280" x2="0" y2="120" stroke="#111111" stroke-width="4.9" stroke-linecap="square" />
<line x1="120" y1="120" x2="200" y2="120" stroke="#111111" stroke-width="2.1" stroke-linecap="square" stroke-dasharray="6 4" />
<line x1="200" y1="120" x2="200" y2="280" stroke="#111111" stroke-width="2.1" stroke-linecap="square" stroke-dasharray="6 4" />
<line x1="200" y1="280" x2="120" y2="280" stroke="#111111" stroke-width="2.1" stroke-linecap="square" stroke-dasharray="6 4" />
<line x1="200" y1="120" x2="320" y2="120" stroke="#111111" stroke-width="4.9" stroke-linecap="square" />
<line x1="320" y1="120" x2="320" y2="280" stroke="#111111" stroke-width="2.1" stroke-linecap="square" stroke-dasharray="6 4" />
<line x1="320" y1="280" x2="200" y2="280" stroke="#111111" stroke-width="4.9" stroke-linecap="square" />
<line x1="320" y1="120" x2="400" y2="120" stroke="#111111" stroke-width="4.9" stroke-linecap="square" />
<line x1="400" y1="120" x2="400" y2="280" stroke="#111111" stroke-width="4.9" stroke-linecap="square" />
<line x1="400" y1="280" x2="320" y2="280" stroke="#111111" stroke-width="4.9" stroke-linecap="square" />
<line x1="120" y1="0" x2="200" y2="0" stroke="#111111" stroke-width="4.9" stroke-linecap="square" />
<line x1="200" y1="0" x2="200" y2="120" stroke="#111111" stroke-width="4.9" stroke-linecap="square" />
<line x1="120" y1="120" x2="120" y2="0" stroke="#111111" stroke-width="4.9" stroke-linecap="square" />
<line x1="200" y1="280" x2="200" y2="400" stroke="#111111" stroke-width="4.9" stroke-linecap="square" />
<line x1="200" y1="400" x2="120" y2="400" stroke="#111111" stroke-width="4.9" stroke-linecap="square" />
<line x1="120" y1="400" x2="120" y2="280" stroke="#111111" stroke-width="4.9" stroke-linecap="square" />
<g data-point-labels="true" font-family="sans-serif" font-size="20" font-weight="700" fill="#111111" text-anchor="middle" dominant-baseline="middle"><text x="120.00" y="-12.00">ㄱ</text><text x="200.00" y="-12.00">ㄴ</text><text x="211.31" y="108.69">ㄷ</text><text x="331.31" y="108.69">ㄹ</text><text x="412.00" y="120.00">ㅁ</text><text x="412.00" y="280.00">ㅂ</text><text x="331.31" y="291.31">ㅅ</text><text x="211.31" y="291.31">ㅇ</text><text x="200.00" y="412.00">ㅈ</text><text x="120.00" y="412.00">ㅊ</text><text x="108.69" y="291.31">ㅋ</text><text x="-12.00" y="280.00">ㅌ</text><text x="-12.00" y="120.00">ㅍ</text><text x="108.69" y="108.69">ㅎ</text></g></svg>