<?xml version='1.0' encoding='utf-8'?>
<svg xmlns="http://www.w3.org/2000/svg" width="744" height="263" viewBox="-32.00 -31.31 744.00 262.62" shape-rendering="crispEdges">
<defs>
    <pattern id="gridMinor" width="40" height="40" patternUnits="userSpaceOnUse">
      <path d="M 40 0 L 0 0 0 40" fill="none" stroke="#94a3b8" stroke-width="1.4" />
    </pattern>
    <pattern id="gridMajor" width="200" height="200" patternUnits="userSpaceOnUse">
      <path d="M 200 0 L 0 0 0 200" fill="none" stroke="#64748b" stroke-width="1.4" />
    </pattern></defs>
<rect width="744.00" height="262.62" fill="white" x="-32.00" y="-31.31" />
<rect width="744.00" height="262.62" fill="url(#gridMinor)" x="-32.00" y="-31.31" />
<rect width="744.00" height="262.62" fill="url(#gridMajor)" x="-32.00" y="-31.31" />
<line x1="240" y1="0" x2="400" y2="0" stroke="#111111" stroke-width="4.9" stroke-linecap="square" />
<line x1="400" y1="0" x2="400" y2="120" stroke="#111111" stroke-width="4.9" stroke-linecap="square" />
<line x1="400" y1="120" x2="240" y2="120" stroke="#111111" stroke-width="2.1" stroke-linecap="square" stroke-dasharray="6 4" />
<line x1="240" y1="120" x2="240" y2="0" stroke="#111111" stroke-width="2.1" stroke-linecap="square" stroke-dasharray="6 4" />
<line x1="160" y1="0" x2="240" y2="0" stroke="#111111" stroke-width="4.9" stroke-linecap="square" />
<line x1="240" y1="120" x2="160" y2="120" stroke="#111111" stroke-width="4.9" stroke-linecap="square" />
<line x1="160" y1="120" x2="160" y2="0" stroke="#111111" stroke-width="2.1" stroke-linecap="square" stroke-dasharray="6 4" />
<line x1="0" y1="0" x2="160" y2="0" stroke="#111111" stroke-width="4.9" stroke-linecap="square" />
<line x1="160" y1="120" x2="0" y2="120" stroke="#111111" stroke-width="4.9" stroke-linecap="square" />
<line x1="0" y1="120" x2="0" y2="0" stroke="#111111" stroke-width="4.9" stroke-linecap="square" />
<line x1="400" y1="120" x2="400" y2="200" stroke="#111111" stroke-width="2.1" stroke-linecap="square" stroke-dasharray="6 4" />
<line x1="400" y1="200" x2="240" y2="200" stroke="#111111" stroke-width="4.9" stroke-linecap="square" />
<line x1="240" y1="200" x2="240" y2="120" stroke="#111111" stroke-width="4.9" stroke-linecap="square" />
<line x1="400" y1="120" x2="520" y2="120" stroke="#111111" stroke-width="4.9" stroke-linecap="square" />
<line x1="520" y1="120" x2="520" y2="200" stroke="#111111" stroke-width="2.1" stroke-linecap="square" stroke-dasharray="6 4" />
<line x1="520" y1="200" x2="400" y2="200" stroke="#111111" stroke-width="4.9" stroke-linecap="square" />
<line x1="520" y1="120" x2="680" y2="120" stroke="#111111" stroke-width="4.9" stroke-linecap="square" />
<line x1="680" y1="120" x2="680" y2="200" stroke="#111111" stroke-width="4.9" stroke-linecap="square" />
<line x1="680" y1="200" x2="520" y2="200" stroke="#111111" stroke-width="4.9" stroke-linecap="square" />
<g data-point-labels="true" font-family="sans-serif" font-size="20" font-weight="700" fill="#111111" text-anchor="middle" dominant-baseline="middle"><text x="-12.00" y="0.00">ㄱ</text><text x="148.69" y="-11.31">ㄴ</text><text x="228.69" y="-11.31">ㄷ</text><text x="408.49" y="-8.49">ㄹ</text><text x="411.31" y="131.31">ㅁ</text><text x="531.31" y="131.31">ㅂ</text><text x="692.00" y="120.00">ㅅ</text><text x="692.00" y="200.00">ㅇ</text><text x="531.31" y="211.31">ㅈ</text><text x="411.31" y="211.31">ㅊ</text><text x="231.51" y="208.49">ㅋ</text><text x="228.69" y="131.31">ㅌ</text><text x="148.69" y="131.31">ㅍ</text><text x="-12.00" y="120.00">ㅎ</text></g></svg>