<?xml version="1.0" encoding="UTF-8"?>
<svg xmlns="http://www.w3.org/2000/svg" width="400" height="360" viewBox="0 0 400 360" shape-rendering="crispEdges">
<rect width="100%" height="100%" fill="white" />
<line x1="0" y1="80" x2="120" y2="80" stroke="#111111" stroke-width="1.5" stroke-linecap="square" stroke-dasharray="6 4" />
<line x1="120" y1="80" x2="120" y2="240" stroke="#111111" stroke-width="1.5" stroke-linecap="square" stroke-dasharray="6 4" />
<line x1="120" y1="240" x2="0" y2="240" stroke="#111111" stroke-width="3.5" stroke-linecap="square"  />
<line x1="0" y1="240" x2="0" y2="80" stroke="#111111" stroke-width="3.5" stroke-linecap="square"  />
<line x1="120" y1="80" x2="200" y2="80" stroke="#111111" stroke-width="3.5" stroke-linecap="square"  />
<line x1="200" y1="80" x2="200" y2="240" stroke="#111111" stroke-width="1.5" stroke-linecap="square" stroke-dasharray="6 4" />
<line x1="200" y1="240" x2="120" y2="240" stroke="#111111" stroke-width="3.5" stroke-linecap="square"  />
<line x1="200" y1="80" x2="320" y2="80" stroke="#111111" stroke-width="3.5" stroke-linecap="square"  />
<line x1="320" y1="80" x2="320" y2="240" stroke="#111111" stroke-width="1.5" stroke-linecap="square" stroke-dasharray="6 4" />
<line x1="320" y1="240" x2="200" y2="240" stroke="#111111" stroke-width="3.5" stroke-linecap="square"  />
<line x1="320" y1="80" x2="400" y2="80" stroke="#111111" stroke-width="3.5" stroke-linecap="square"  />
<line x1="400" y1="80" x2="400" y2="240" stroke="#111111" stroke-width="3.5" stroke-linecap="square"  />
<line x1="400" y1="240" x2="320" y2="240" stroke="#111111" stroke-width="1.5" stroke-linecap="square" stroke-dasharray="6 4" />
<line x1="0" y1="0" x2="120" y2="0" stroke="#111111" stroke-width="3.5" stroke-linecap="square"  />
<line x1="120" y1="0" x2="120" y2="80" stroke="#111111" stroke-width="3.5" stroke-linecap="square"  />
<line x1="0" y1="80" x2="0" y2="0" stroke="#111111" stroke-width="3.5" stroke-linecap="square"  />
<line x1="400" y1="240" x2="400" y2="360" stroke="#111111" stroke-width="3.5" stroke-linecap="square"  />
<line x1="400" y1="360" x2="320" y2="360" stroke="#111111" stroke-width="3.5" stroke-linecap="square"  />
<line x1="320" y1="360" x2="320" y2="240" stroke="#111111" stroke-width="3.5" stroke-linecap="square"  />
</svg>