<?xml version="1.0" encoding="UTF-8"?>
<svg xmlns="http://www.w3.org/2000/svg" width="560" height="360" viewBox="0 0 560 360" shape-rendering="crispEdges">
<defs>
    <pattern id="gridMinor" width="40" height="40" patternUnits="userSpaceOnUse">
      <path d="M 40 0 L 0 0 0 40" fill="none" stroke="#e2e8f0" stroke-width="1" />
    </pattern>
    <pattern id="gridMajor" width="200" height="200" patternUnits="userSpaceOnUse">
      <path d="M 200 0 L 0 0 0 200" fill="none" stroke="#cbd5e1" stroke-width="1" />
    </pattern></defs>
<rect width="100%" height="100%" fill="white" />
<rect width="100%" height="100%" fill="url(#gridMinor)" />
<rect width="100%" height="100%" fill="url(#gridMajor)" />
<line x1="0" y1="120" x2="160" y2="120" stroke="#111111" stroke-width="1.5" stroke-linecap="square" stroke-dasharray="6 4" />
<line x1="160" y1="120" x2="160" y2="200" stroke="#111111" stroke-width="1.5" stroke-linecap="square" stroke-dasharray="6 4" />
<line x1="160" y1="200" x2="0" y2="200" stroke="#111111" stroke-width="3.5" stroke-linecap="square"  />
<line x1="0" y1="200" x2="0" y2="120" stroke="#111111" stroke-width="3.5" stroke-linecap="square"  />
<line x1="160" y1="120" x2="280" y2="120" stroke="#111111" stroke-width="3.5" stroke-linecap="square"  />
<line x1="280" y1="120" x2="280" y2="200" stroke="#111111" stroke-width="1.5" stroke-linecap="square" stroke-dasharray="6 4" />
<line x1="280" y1="200" x2="160" y2="200" stroke="#111111" stroke-width="3.5" stroke-linecap="square"  />
<line x1="280" y1="120" x2="440" y2="120" stroke="#111111" stroke-width="3.5" stroke-linecap="square"  />
<line x1="440" y1="120" x2="440" y2="200" stroke="#111111" stroke-width="1.5" stroke-linecap="square" stroke-dasharray="6 4" />
<line x1="440" y1="200" x2="280" y2="200" stroke="#111111" stroke-width="3.5" stroke-linecap="square"  />
<line x1="440" y1="120" x2="560" y2="120" stroke="#111111" stroke-width="3.5" stroke-linecap="square"  />
<line x1="560" y1="120" x2="560" y2="200" stroke="#111111" stroke-width="3.5" stroke-linecap="square"  />
<line x1="560" y1="200" x2="440" y2="200" stroke="#111111" stroke-width="1.5" stroke-linecap="square" stroke-dasharray="6 4" />
<line x1="0" y1="0" x2="160" y2="0" stroke="#111111" stroke-width="3.5" stroke-linecap="square"  />
<line x1="160" y1="0" x2="160" y2="120" stroke="#111111" stroke-width="3.5" stroke-linecap="square"  />
<line x1="0" y1="120" x2="0" y2="0" stroke="#111111" stroke-width="3.5" stroke-linecap="square"  />
<line x1="560" y1="200" x2="560" y2="360" stroke="#111111" stroke-width="3.5" stroke-linecap="square"  />
<line x1="560" y1="360" x2="440" y2="360" stroke="#111111" stroke-width="3.5" stroke-linecap="square"  />
<line x1="440" y1="360" x2="440" y2="200" stroke="#111111" stroke-width="3.5" stroke-linecap="square"  />
</svg>