<?xml version="1.0" encoding="UTF-8"?>
<svg xmlns="http://www.w3.org/2000/svg" width="480" height="400" viewBox="0 0 480 400" shape-rendering="crispEdges">
<rect width="100%" height="100%" fill="white" />
<line x1="200" y1="160" x2="360" y2="160" stroke="#111111" stroke-width="3.5" stroke-linecap="square"  />
<line x1="360" y1="160" x2="360" y2="240" stroke="#111111" stroke-width="1.5" stroke-linecap="square" stroke-dasharray="6 4" />
<line x1="360" y1="240" x2="200" y2="240" stroke="#111111" stroke-width="3.5" stroke-linecap="square"  />
<line x1="200" y1="240" x2="200" y2="160" stroke="#111111" stroke-width="1.5" stroke-linecap="square" stroke-dasharray="6 4" />
<line x1="80" y1="160" x2="200" y2="160" stroke="#111111" stroke-width="1.5" stroke-linecap="square" stroke-dasharray="6 4" />
<line x1="200" y1="240" x2="80" y2="240" stroke="#111111" stroke-width="3.5" stroke-linecap="square"  />
<line x1="80" y1="240" x2="80" y2="160" stroke="#111111" stroke-width="3.5" stroke-linecap="square"  />
<line x1="360" y1="160" x2="480" y2="160" stroke="#111111" stroke-width="3.5" stroke-linecap="square"  />
<line x1="480" y1="160" x2="480" y2="240" stroke="#111111" stroke-width="3.5" stroke-linecap="square"  />
<line x1="480" y1="240" x2="360" y2="240" stroke="#111111" stroke-width="1.5" stroke-linecap="square" stroke-dasharray="6 4" />
<line x1="80" y1="0" x2="200" y2="0" stroke="#111111" stroke-width="3.5" stroke-linecap="square"  />
<line x1="200" y1="0" x2="200" y2="160" stroke="#111111" stroke-width="3.5" stroke-linecap="square"  />
<line x1="80" y1="160" x2="80" y2="0" stroke="#111111" stroke-width="1.5" stroke-linecap="square" stroke-dasharray="6 4" />
<line x1="0" y1="0" x2="80" y2="0" stroke="#111111" stroke-width="3.5" stroke-linecap="square"  />
<line x1="80" y1="160" x2="0" y2="160" stroke="#111111" stroke-width="3.5" stroke-linecap="square"  />
<line x1="0" y1="160" x2="0" y2="0" stroke="#111111" stroke-width="3.5" stroke-linecap="square"  />
<line x1="480" y1="240" x2="480" y2="400" stroke="#111111" stroke-width="3.5" stroke-linecap="square"  />
<line x1="480" y1="400" x2="360" y2="400" stroke="#111111" stroke-width="3.5" stroke-linecap="square"  />
<line x1="360" y1="400" x2="360" y2="240" stroke="#111111" stroke-width="3.5" stroke-linecap="square"  />
</svg>