<?xml version="1.0" encoding="UTF-8"?>
<svg xmlns="http://www.w3.org/2000/svg" width="560" height="360" viewBox="0 0 560 360" shape-rendering="crispEdges">
<rect width="100%" height="100%" fill="white" />
<line x1="0" y1="120" x2="160" y2="120" stroke="#111111" stroke-width="1.5" stroke-linecap="square" stroke-dasharray="6 4" />
<line x1="160" y1="120" x2="160" y2="200" stroke="#111111" stroke-width="1.5" stroke-linecap="square" stroke-dasharray="6 4" />
<line x1="160" y1="200" x2="0" y2="200" stroke="#111111" stroke-width="3.5" stroke-linecap="square"  />
<line x1="0" y1="200" x2="0" y2="120" stroke="#111111" stroke-width="3.5" stroke-linecap="square"  />
<line x1="160" y1="120" x2="280" y2="120" stroke="#111111" stroke-width="3.5" stroke-linecap="square"  />
<line x1="280" y1="120" x2="280" y2="200" stroke="#111111" stroke-width="1.5" stroke-linecap="square" stroke-dasharray="6 4" />
<line x1="280" y1="200" x2="160" y2="200" stroke="#111111" stroke-width="1.5" stroke-linecap="square" stroke-dasharray="6 4" />
<line x1="280" y1="120" x2="440" y2="120" stroke="#111111" stroke-width="3.5" stroke-linecap="square"  />
<line x1="440" y1="120" x2="440" y2="200" stroke="#111111" stroke-width="1.5" stroke-linecap="square" stroke-dasharray="6 4" />
<line x1="440" y1="200" x2="280" y2="200" stroke="#111111" stroke-width="3.5" stroke-linecap="square"  />
<line x1="440" y1="120" x2="560" y2="120" stroke="#111111" stroke-width="3.5" stroke-linecap="square"  />
<line x1="560" y1="120" x2="560" y2="200" stroke="#111111" stroke-width="3.5" stroke-linecap="square"  />
<line x1="560" y1="200" x2="440" y2="200" stroke="#111111" stroke-width="3.5" stroke-linecap="square"  />
<line x1="280" y1="200" x2="280" y2="360" stroke="#111111" stroke-width="3.5" stroke-linecap="square"  />
<line x1="280" y1="360" x2="160" y2="360" stroke="#111111" stroke-width="3.5" stroke-linecap="square"  />
<line x1="160" y1="360" x2="160" y2="200" stroke="#111111" stroke-width="3.5" stroke-linecap="square"  />
<line x1="0" y1="0" x2="160" y2="0" stroke="#111111" stroke-width="3.5" stroke-linecap="square"  />
<line x1="160" y1="0" x2="160" y2="120" stroke="#111111" stroke-width="3.5" stroke-linecap="square"  />
<line x1="0" y1="120" x2="0" y2="0" stroke="#111111" stroke-width="3.5" stroke-linecap="square"  />
</svg>