<?xml version='1.0' encoding='utf-8'?>
<svg xmlns="http://www.w3.org/2000/svg" width="664" height="304" viewBox="-32.00 -32.00 664.00 304.00" shape-rendering="crispEdges">
<defs>
    <pattern id="gridMinor" width="40" height="40" patternUnits="userSpaceOnUse">
      <path d="M 40 0 L 0 0 0 40" fill="none" stroke="#94a3b8" stroke-width="1.4" />
    </pattern>
    <pattern id="gridMajor" width="200" height="200" patternUnits="userSpaceOnUse">
      <path d="M 200 0 L 0 0 0 200" fill="none" stroke="#64748b" stroke-width="1.4" />
    </pattern></defs>
<rect width="664.00" height="304.00" fill="white" x="-32.00" y="-32.00" />
<rect width="664.00" height="304.00" fill="url(#gridMinor)" x="-32.00" y="-32.00" />
<rect width="664.00" height="304.00" fill="url(#gridMajor)" x="-32.00" y="-32.00" />
<line x1="200" y1="0" x2="320" y2="0" stroke="#111111" stroke-width="4.9" stroke-linecap="square" />
<line x1="320" y1="0" x2="320" y2="160" stroke="#111111" stroke-width="4.9" stroke-linecap="square" />
<line x1="320" y1="160" x2="200" y2="160" stroke="#111111" stroke-width="2.1" stroke-linecap="square" stroke-dasharray="6 4" />
<line x1="200" y1="160" x2="200" y2="0" stroke="#111111" stroke-width="2.1" stroke-linecap="square" stroke-dasharray="6 4" />
<line x1="120" y1="0" x2="200" y2="0" stroke="#111111" stroke-width="4.9" stroke-linecap="square" />
<line x1="200" y1="160" x2="120" y2="160" stroke="#111111" stroke-width="4.9" stroke-linecap="square" />
<line x1="120" y1="160" x2="120" y2="0" stroke="#111111" stroke-width="2.1" stroke-linecap="square" stroke-dasharray="6 4" />
<line x1="0" y1="0" x2="120" y2="0" stroke="#111111" stroke-width="4.9" stroke-linecap="square" />
<line x1="120" y1="160" x2="0" y2="160" stroke="#111111" stroke-width="4.9" stroke-linecap="square" />
<line x1="0" y1="160" x2="0" y2="0" stroke="#111111" stroke-width="4.9" stroke-linecap="square" />
<line x1="320" y1="160" x2="320" y2="240" stroke="#111111" stroke-width="2.1" stroke-linecap="square" stroke-dasharray="6 4" />
<line x1="320" y1="240" x2="200" y2="240" stroke="#111111" stroke-width="4.9" stroke-linecap="square" />
<line x1="200" y1="240" x2="200" y2="160" stroke="#111111" stroke-width="4.9" stroke-linecap="square" />
<line x1="320" y1="160" x2="480" y2="160" stroke="#111111" stroke-width="4.9" stroke-linecap="square" />
<line x1="480" y1="160" x2="480" y2="240" stroke="#111111" stroke-width="2.1" stroke-linecap="square" stroke-dasharray="6 4" />
<line x1="480" y1="240" x2="320" y2="240" stroke="#111111" stroke-width="4.9" stroke-linecap="square" />
<line x1="480" y1="160" x2="600" y2="160" stroke="#111111" stroke-width="4.9" stroke-linecap="square" />
<line x1="600" y1="160" x2="600" y2="240" stroke="#111111" stroke-width="4.9" stroke-linecap="square" />
<line x1="600" y1="240" x2="480" y2="240" stroke="#111111" stroke-width="4.9" stroke-linecap="square" />
<g data-point-labels="true" font-family="sans-serif" font-size="20" font-weight="700" fill="#111111" text-anchor="middle" dominant-baseline="middle"><text x="-8.49" y="-8.49">ㄱ</text><text x="108.69" y="-11.31">ㄴ</text><text x="188.69" y="-11.31">ㄷ</text><text x="320.00" y="-12.00">ㄹ</text><text x="331.31" y="171.31">ㅁ</text><text x="491.31" y="171.31">ㅂ</text><text x="612.00" y="160.00">ㅅ</text><text x="612.00" y="240.00">ㅇ</text><text x="491.31" y="251.31">ㅈ</text><text x="320.00" y="252.00">ㅊ</text><text x="191.51" y="248.49">ㅋ</text><text x="188.69" y="171.31">ㅌ</text><text x="108.69" y="171.31">ㅍ</text><text x="-12.00" y="160.00">ㅎ</text></g></svg>