<?xml version="1.0" encoding="UTF-8"?>
<svg xmlns="http://www.w3.org/2000/svg" width="440" height="440" viewBox="0 0 440 440" shape-rendering="crispEdges">
<rect width="100%" height="100%" fill="white" />
<line x1="120" y1="160" x2="200" y2="160" stroke="#111111" stroke-width="1.5" stroke-linecap="square" stroke-dasharray="6 4" />
<line x1="200" y1="160" x2="200" y2="280" stroke="#111111" stroke-width="1.5" stroke-linecap="square" stroke-dasharray="6 4" />
<line x1="200" y1="280" x2="120" y2="280" stroke="#111111" stroke-width="1.5" stroke-linecap="square" stroke-dasharray="6 4" />
<line x1="120" y1="280" x2="120" y2="160" stroke="#111111" stroke-width="3.5" stroke-linecap="square"  />
<line x1="200" y1="160" x2="360" y2="160" stroke="#111111" stroke-width="3.5" stroke-linecap="square"  />
<line x1="360" y1="160" x2="360" y2="280" stroke="#111111" stroke-width="1.5" stroke-linecap="square" stroke-dasharray="6 4" />
<line x1="360" y1="280" x2="200" y2="280" stroke="#111111" stroke-width="3.5" stroke-linecap="square"  />
<line x1="360" y1="160" x2="440" y2="160" stroke="#111111" stroke-width="3.5" stroke-linecap="square"  />
<line x1="440" y1="160" x2="440" y2="280" stroke="#111111" stroke-width="3.5" stroke-linecap="square"  />
<line x1="440" y1="280" x2="360" y2="280" stroke="#111111" stroke-width="3.5" stroke-linecap="square"  />
<line x1="120" y1="0" x2="200" y2="0" stroke="#111111" stroke-width="3.5" stroke-linecap="square"  />
<line x1="200" y1="0" x2="200" y2="160" stroke="#111111" stroke-width="3.5" stroke-linecap="square"  />
<line x1="120" y1="160" x2="120" y2="0" stroke="#111111" stroke-width="1.5" stroke-linecap="square" stroke-dasharray="6 4" />
<line x1="0" y1="0" x2="120" y2="0" stroke="#111111" stroke-width="3.5" stroke-linecap="square"  />
<line x1="120" y1="160" x2="0" y2="160" stroke="#111111" stroke-width="3.5" stroke-linecap="square"  />
<line x1="0" y1="160" x2="0" y2="0" stroke="#111111" stroke-width="3.5" stroke-linecap="square"  />
<line x1="200" y1="280" x2="200" y2="440" stroke="#111111" stroke-width="3.5" stroke-linecap="square"  />
<line x1="200" y1="440" x2="120" y2="440" stroke="#111111" stroke-width="3.5" stroke-linecap="square"  />
<line x1="120" y1="440" x2="120" y2="280" stroke="#111111" stroke-width="3.5" stroke-linecap="square"  />
</svg>