<?xml version="1.0" encoding="UTF-8"?>
<svg xmlns="http://www.w3.org/2000/svg" width="520" height="280" viewBox="0 0 520 280" shape-rendering="crispEdges">
<rect width="100%" height="100%" fill="white" />
<line x1="200" y1="0" x2="280" y2="0" stroke="#111111" stroke-width="3.5" stroke-linecap="square"  />
<line x1="280" y1="0" x2="280" y2="160" stroke="#111111" stroke-width="3.5" stroke-linecap="square"  />
<line x1="280" y1="160" x2="200" y2="160" stroke="#111111" stroke-width="1.5" stroke-linecap="square" stroke-dasharray="6 4" />
<line x1="200" y1="160" x2="200" y2="0" stroke="#111111" stroke-width="1.5" stroke-linecap="square" stroke-dasharray="6 4" />
<line x1="80" y1="0" x2="200" y2="0" stroke="#111111" stroke-width="3.5" stroke-linecap="square"  />
<line x1="200" y1="160" x2="80" y2="160" stroke="#111111" stroke-width="3.5" stroke-linecap="square"  />
<line x1="80" y1="160" x2="80" y2="0" stroke="#111111" stroke-width="1.5" stroke-linecap="square" stroke-dasharray="6 4" />
<line x1="0" y1="0" x2="80" y2="0" stroke="#111111" stroke-width="3.5" stroke-linecap="square"  />
<line x1="80" y1="160" x2="0" y2="160" stroke="#111111" stroke-width="3.5" stroke-linecap="square"  />
<line x1="0" y1="160" x2="0" y2="0" stroke="#111111" stroke-width="3.5" stroke-linecap="square"  />
<line x1="280" y1="160" x2="280" y2="280" stroke="#111111" stroke-width="1.5" stroke-linecap="square" stroke-dasharray="6 4" />
<line x1="280" y1="280" x2="200" y2="280" stroke="#111111" stroke-width="3.5" stroke-linecap="square"  />
<line x1="200" y1="280" x2="200" y2="160" stroke="#111111" stroke-width="3.5" stroke-linecap="square"  />
<line x1="280" y1="160" x2="440" y2="160" stroke="#111111" stroke-width="3.5" stroke-linecap="square"  />
<line x1="440" y1="160" x2="440" y2="280" stroke="#111111" stroke-width="1.5" stroke-linecap="square" stroke-dasharray="6 4" />
<line x1="440" y1="280" x2="280" y2="280" stroke="#111111" stroke-width="3.5" stroke-linecap="square"  />
<line x1="440" y1="160" x2="520" y2="160" stroke="#111111" stroke-width="3.5" stroke-linecap="square"  />
<line x1="520" y1="160" x2="520" y2="280" stroke="#111111" stroke-width="3.5" stroke-linecap="square"  />
<line x1="520" y1="280" x2="440" y2="280" stroke="#111111" stroke-width="3.5" stroke-linecap="square"  />
</svg>