<?xml version='1.0' encoding='utf-8'?>
<svg xmlns="http://www.w3.org/2000/svg" width="340" height="464" viewBox="-31.31 -32.00 339.80 464.00" shape-rendering="crispEdges">
<defs>
    <pattern id="gridMinor" width="40" height="40" patternUnits="userSpaceOnUse">
      <path d="M 40 0 L 0 0 0 40" fill="none" stroke="#94a3b8" stroke-width="1.4" />
    </pattern>
    <pattern id="gridMajor" width="200" height="200" patternUnits="userSpaceOnUse">
      <path d="M 200 0 L 0 0 0 200" fill="none" stroke="#64748b" stroke-width="1.4" />
    </pattern></defs>
<rect width="339.80" height="464.00" fill="white" x="-31.31" y="-32.00" />
<rect width="339.80" height="464.00" fill="url(#gridMinor)" x="-31.31" y="-32.00" />
<rect width="339.80" height="464.00" fill="url(#gridMajor)" x="-31.31" y="-32.00" />
<line x1="80" y1="120" x2="0" y2="120" stroke="#111111" stroke-width="2.1" stroke-linecap="square" stroke-dasharray="6 4" />
<line x1="80" y1="280" x2="80" y2="120" stroke="#111111" stroke-width="2.1" stroke-linecap="square" stroke-dasharray="6 4" />
<line x1="0" y1="280" x2="80" y2="280" stroke="#111111" stroke-width="2.1" stroke-linecap="square" stroke-dasharray="6 4" />
<line x1="0" y1="280" x2="0" y2="120" stroke="#111111" stroke-width="4.9" stroke-linecap="square" />
<line x1="80" y1="120" x2="200" y2="120" stroke="#111111" stroke-width="4.9" stroke-linecap="square" />
<line x1="200" y1="280" x2="200" y2="120" stroke="#111111" stroke-width="2.1" stroke-linecap="square" stroke-dasharray="6 4" />
<line x1="200" y1="280" x2="80" y2="280" stroke="#111111" stroke-width="4.9" stroke-linecap="square" />
<line x1="200" y1="120" x2="280" y2="120" stroke="#111111" stroke-width="4.9" stroke-linecap="square" />
<line x1="280" y1="120" x2="280" y2="280" stroke="#111111" stroke-width="4.9" stroke-linecap="square" />
<line x1="280" y1="280" x2="200" y2="280" stroke="#111111" stroke-width="4.9" stroke-linecap="square" />
<line x1="0" y1="0" x2="80" y2="0" stroke="#111111" stroke-width="4.9" stroke-linecap="square" />
<line x1="80" y1="0" x2="80" y2="120" stroke="#111111" stroke-width="4.9" stroke-linecap="square" />
<line x1="0" y1="120" x2="0" y2="0" stroke="#111111" stroke-width="4.9" stroke-linecap="square" />
<line x1="80" y1="280" x2="80" y2="400" stroke="#111111" stroke-width="4.9" stroke-linecap="square" />
<line x1="80" y1="400" x2="0" y2="400" stroke="#111111" stroke-width="4.9" stroke-linecap="square" />
<line x1="0" y1="400" x2="0" y2="280" stroke="#111111" stroke-width="4.9" stroke-linecap="square" />
<g data-point-labels="true" font-family="sans-serif" font-size="20" font-weight="700" fill="#111111" text-anchor="middle" dominant-baseline="middle"><text x="-8.49" y="-8.49">ㄱ</text><text x="80.00" y="-12.00">ㄴ</text><text x="68.69" y="108.69">ㄷ</text><text x="211.31" y="108.69">ㄹ</text><text x="288.49" y="111.51">ㅁ</text><text x="288.49" y="288.49">ㅂ</text><text x="211.31" y="291.31">ㅅ</text><text x="68.69" y="291.31">ㅇ</text><text x="80.00" y="412.00">ㅈ</text><text x="-8.49" y="408.49">ㅊ</text><text x="-11.31" y="291.31">ㅋ</text><text x="-11.31" y="108.69">ㅌ</text></g></svg>