<svg xmlns="http://www.w3.org/2000/svg" width="514.005" height="270.0" viewBox="-56.80 -55.43 513.60 270.84" shape-rendering="crispEdges">
<defs>
    <pattern id="gridMinor" width="40" height="40" patternUnits="userSpaceOnUse">
      <path d="M 40 0 L 0 0 0 40" fill="none" stroke="#94a3b8" stroke-width="1.4" />
    </pattern>
    <pattern id="gridMajor" width="200" height="200" patternUnits="userSpaceOnUse">
      <path d="M 200 0 L 0 0 0 200" fill="none" stroke="#64748b" stroke-width="1.4" />
    </pattern></defs>
<rect width="513.5999999999999" height="270.84000000000003" fill="white" x="-56.80499999999999" y="-55.425000000000004" />
<rect width="513.5999999999999" height="270.84000000000003" fill="url(#gridMinor)" x="-56.80499999999999" y="-55.425000000000004" />
<rect width="513.5999999999999" height="270.84000000000003" fill="url(#gridMajor)" x="-56.80499999999999" y="-55.425000000000004" />
<line x1="160.005" y1="0.0" x2="240.0" y2="0.0" stroke="#111111" stroke-width="4.9" stroke-linecap="square" />
<line x1="240.0" y1="0.0" x2="240.0" y2="79.995" stroke="#111111" stroke-width="4.9" stroke-linecap="square" />
<line x1="160.005" y1="79.995" x2="240.0" y2="79.995" stroke="#111111" stroke-width="2.1" stroke-linecap="square" stroke-dasharray="6 4" />
<line x1="160.005" y1="0.0" x2="160.005" y2="79.995" stroke="#111111" stroke-width="2.1" stroke-linecap="square" stroke-dasharray="6 4" />
<line x1="79.995" y1="0.0" x2="160.005" y2="0.0" stroke="#111111" stroke-width="4.9" stroke-linecap="square" />
<line x1="160.005" y1="79.995" x2="79.995" y2="79.995" stroke="#111111" stroke-width="4.9" stroke-linecap="square" />
<line x1="79.995" y1="0.0" x2="79.995" y2="79.995" stroke="#111111" stroke-width="2.1" stroke-linecap="square" stroke-dasharray="6 4" />
<line x1="0.0" y1="0.0" x2="79.995" y2="0.0" stroke="#111111" stroke-width="4.9" stroke-linecap="square" />
<line x1="79.995" y1="79.995" x2="0.0" y2="79.995" stroke="#111111" stroke-width="4.9" stroke-linecap="square" />
<line x1="0.0" y1="79.995" x2="0.0" y2="0.0" stroke="#111111" stroke-width="4.9" stroke-linecap="square" />
<line x1="240.0" y1="160.005" x2="240.0" y2="79.995" stroke="#111111" stroke-width="2.1" stroke-linecap="square" stroke-dasharray="6 4" />
<line x1="240.0" y1="160.005" x2="160.005" y2="160.005" stroke="#111111" stroke-width="4.9" stroke-linecap="square" />
<line x1="160.005" y1="160.005" x2="160.005" y2="79.995" stroke="#ef4444" stroke-width="4.9" stroke-linecap="square" />
<line x1="240.0" y1="79.995" x2="319.995" y2="79.995" stroke="#111111" stroke-width="4.9" stroke-linecap="square" />
<line x1="319.995" y1="160.005" x2="319.995" y2="79.995" stroke="#111111" stroke-width="2.1" stroke-linecap="square" stroke-dasharray="6 4" />
<line x1="319.995" y1="160.005" x2="240.0" y2="160.005" stroke="#111111" stroke-width="4.9" stroke-linecap="square" />
<line x1="319.995" y1="79.995" x2="400.005" y2="79.995" stroke="#111111" stroke-width="4.9" stroke-linecap="square" />
<line x1="400.005" y1="79.995" x2="400.005" y2="160.005" stroke="#111111" stroke-width="4.9" stroke-linecap="square" />
<line x1="400.005" y1="160.005" x2="319.995" y2="160.005" stroke="#111111" stroke-width="4.9" stroke-linecap="square" />
<g data-point-labels="true" font-family="sans-serif" font-size="28.005000000000003" font-weight="700" fill="#111111" text-anchor="middle" dominant-baseline="middle"><text x="-24.0" y="0.0">ㄱ</text><text x="57.375" y="-22.62">ㄴ</text><text x="137.385" y="-22.62">ㄷ</text><text x="256.98" y="-16.98">ㄹ</text><text x="262.62" y="57.375">ㅁ</text><text x="342.615" y="57.375">ㅂ</text><text x="424.005" y="79.995">ㅅ</text><text x="424.005" y="160.005">ㅇ</text><text x="342.615" y="182.625">ㅈ</text><text x="262.62" y="182.625">ㅊ</text><text x="143.02499999999998" y="176.98499999999999">ㅋ</text><text x="137.385" y="102.615">ㅌ</text><text x="57.375" y="102.615">ㅍ</text><text x="-24.0" y="79.995">ㅎ</text></g></svg>