<?xml version='1.0' encoding='utf-8'?>
<svg xmlns="http://www.w3.org/2000/svg" width="504" height="424" viewBox="-32.00 -32.00 504.00 424.00" shape-rendering="crispEdges">
<defs>
    <pattern id="gridMinor" width="40" height="40" patternUnits="userSpaceOnUse">
      <path d="M 40 0 L 0 0 0 40" fill="none" stroke="#94a3b8" stroke-width="1.4" />
    </pattern>
    <pattern id="gridMajor" width="200" height="200" patternUnits="userSpaceOnUse">
      <path d="M 200 0 L 0 0 0 200" fill="none" stroke="#64748b" stroke-width="1.4" />
    </pattern></defs>
<rect width="504.00" height="424.00" fill="white" x="-32.00" y="-32.00" />
<rect width="504.00" height="424.00" fill="url(#gridMinor)" x="-32.00" y="-32.00" />
<rect width="504.00" height="424.00" fill="url(#gridMajor)" x="-32.00" y="-32.00" />
<line x1="0" y1="0" x2="80" y2="0" stroke="#111111" stroke-width="4.9" stroke-linecap="square" />
<line x1="80" y1="120" x2="80" y2="0" stroke="#111111" stroke-width="2.1" stroke-linecap="square" stroke-dasharray="6 4" />
<line x1="80" y1="120" x2="0" y2="120" stroke="#111111" stroke-width="4.9" stroke-linecap="square" />
<line x1="0" y1="120" x2="0" y2="0" stroke="#111111" stroke-width="4.9" stroke-linecap="square" />
<line x1="80" y1="0" x2="240" y2="0" stroke="#111111" stroke-width="4.9" stroke-linecap="square" />
<line x1="240" y1="0" x2="240" y2="120" stroke="#111111" stroke-width="4.9" stroke-linecap="square" />
<line x1="80" y1="120" x2="240" y2="120" stroke="#111111" stroke-width="2.1" stroke-linecap="square" stroke-dasharray="6 4" />
<line x1="240" y1="200" x2="240" y2="120" stroke="#111111" stroke-width="2.1" stroke-linecap="square" stroke-dasharray="6 4" />
<line x1="240" y1="200" x2="80" y2="200" stroke="#111111" stroke-width="4.9" stroke-linecap="square" />
<line x1="80" y1="200" x2="80" y2="120" stroke="#111111" stroke-width="4.9" stroke-linecap="square" />
<line x1="240" y1="120" x2="360" y2="120" stroke="#111111" stroke-width="4.9" stroke-linecap="square" />
<line x1="360" y1="120" x2="360" y2="200" stroke="#111111" stroke-width="4.9" stroke-linecap="square" />
<line x1="240" y1="200" x2="360" y2="200" stroke="#111111" stroke-width="2.1" stroke-linecap="square" stroke-dasharray="6 4" />
<line x1="360" y1="360" x2="360" y2="200" stroke="#111111" stroke-width="2.1" stroke-linecap="square" stroke-dasharray="6 4" />
<line x1="360" y1="360" x2="240" y2="360" stroke="#111111" stroke-width="4.9" stroke-linecap="square" />
<line x1="240" y1="360" x2="240" y2="200" stroke="#111111" stroke-width="4.9" stroke-linecap="square" />
<line x1="360" y1="200" x2="440" y2="200" stroke="#111111" stroke-width="4.9" stroke-linecap="square" />
<line x1="440" y1="200" x2="440" y2="360" stroke="#111111" stroke-width="4.9" stroke-linecap="square" />
<line x1="440" y1="360" x2="360" y2="360" stroke="#ef4444" stroke-width="4.9" stroke-linecap="square" />
<g data-point-labels="true" font-family="sans-serif" font-size="20" font-weight="700" fill="#111111" text-anchor="middle" dominant-baseline="middle"><text x="-8.49" y="-8.49">ㄱ</text><text x="68.69" y="-11.31">ㄴ</text><text x="240.00" y="-12.00">ㄷ</text><text x="251.31" y="108.69">ㄹ</text><text x="372.00" y="120.00">ㅁ</text><text x="371.31" y="211.31">ㅂ</text><text x="452.00" y="200.00">ㅅ</text><text x="448.49" y="368.49">ㅇ</text><text x="371.31" y="371.31">ㅈ</text><text x="240.00" y="372.00">ㅊ</text><text x="251.31" y="211.31">ㅋ</text><text x="68.00" y="200.00">ㅌ</text><text x="68.69" y="108.69">ㅍ</text><text x="-12.00" y="120.00">ㅎ</text></g></svg>