<svg xmlns="http://www.w3.org/2000/svg" width="433.995" height="354.0" viewBox="-56.80 -56.80 433.61 353.59" shape-rendering="crispEdges">
<defs>
    <pattern id="gridMinor" width="40" height="40" patternUnits="userSpaceOnUse">
      <path d="M 40 0 L 0 0 0 40" fill="none" stroke="#94a3b8" stroke-width="1.4" />
    </pattern>
    <pattern id="gridMajor" width="200" height="200" patternUnits="userSpaceOnUse">
      <path d="M 200 0 L 0 0 0 200" fill="none" stroke="#64748b" stroke-width="1.4" />
    </pattern></defs>
<rect width="433.605" height="353.59499999999997" fill="white" x="-56.80499999999999" y="-56.80499999999999" />
<rect width="433.605" height="353.59499999999997" fill="url(#gridMinor)" x="-56.80499999999999" y="-56.80499999999999" />
<rect width="433.605" height="353.59499999999997" fill="url(#gridMajor)" x="-56.80499999999999" y="-56.80499999999999" />
<rect x="79.995" y="79.995" width="79.995" height="79.995" fill="#fecaca" fill-opacity="0.55" />
<line x1="0.0" y1="79.995" x2="79.995" y2="79.995" stroke="#111111" stroke-width="4.9" stroke-linecap="square" />
<line x1="79.995" y1="160.005" x2="79.995" y2="79.995" stroke="#111111" stroke-width="2.1" stroke-linecap="square" stroke-dasharray="6 4" />
<line x1="79.995" y1="160.005" x2="0.0" y2="160.005" stroke="#111111" stroke-width="4.9" stroke-linecap="square" />
<line x1="0.0" y1="160.005" x2="0.0" y2="79.995" stroke="#111111" stroke-width="4.9" stroke-linecap="square" />
<line x1="160.005" y1="79.995" x2="79.995" y2="79.995" stroke="#111111" stroke-width="2.1" stroke-linecap="square" stroke-dasharray="6 4" />
<line x1="160.005" y1="160.005" x2="160.005" y2="79.995" stroke="#111111" stroke-width="2.1" stroke-linecap="square" stroke-dasharray="6 4" />
<line x1="160.005" y1="160.005" x2="79.995" y2="160.005" stroke="#111111" stroke-width="4.9" stroke-linecap="square" />
<line x1="160.005" y1="79.995" x2="240.0" y2="79.995" stroke="#111111" stroke-width="4.9" stroke-linecap="square" />
<line x1="240.0" y1="160.005" x2="240.0" y2="79.995" stroke="#111111" stroke-width="2.1" stroke-linecap="square" stroke-dasharray="6 4" />
<line x1="160.005" y1="160.005" x2="240.0" y2="160.005" stroke="#111111" stroke-width="2.1" stroke-linecap="square" stroke-dasharray="6 4" />
<line x1="240.0" y1="79.995" x2="319.995" y2="79.995" stroke="#111111" stroke-width="4.9" stroke-linecap="square" />
<line x1="319.995" y1="79.995" x2="319.995" y2="160.005" stroke="#111111" stroke-width="4.9" stroke-linecap="square" />
<line x1="319.995" y1="160.005" x2="240.0" y2="160.005" stroke="#111111" stroke-width="4.9" stroke-linecap="square" />
<line x1="79.995" y1="0.0" x2="160.005" y2="0.0" stroke="#111111" stroke-width="4.9" stroke-linecap="square" />
<line x1="160.005" y1="0.0" x2="160.005" y2="79.995" stroke="#111111" stroke-width="4.9" stroke-linecap="square" />
<line x1="79.995" y1="79.995" x2="79.995" y2="0.0" stroke="#111111" stroke-width="4.9" stroke-linecap="square" />
<line x1="240.0" y1="160.005" x2="240.0" y2="240.0" stroke="#111111" stroke-width="4.9" stroke-linecap="square" />
<line x1="240.0" y1="240.0" x2="160.005" y2="240.0" stroke="#111111" stroke-width="4.9" stroke-linecap="square" />
<line x1="160.005" y1="240.0" x2="160.005" y2="160.005" stroke="#111111" stroke-width="4.9" stroke-linecap="square" />
<g data-point-labels="true" font-family="sans-serif" font-size="28.005000000000003" font-weight="700" fill="#111111" text-anchor="middle" dominant-baseline="middle"><text x="63.015" y="-16.98">ㄱ</text><text x="160.005" y="-24.0">ㄴ</text><text x="182.625" y="57.375">ㄷ</text><text x="262.62" y="57.375">ㄹ</text><text x="343.995" y="79.995">ㅁ</text><text x="343.995" y="160.005">ㅂ</text><text x="262.62" y="182.625">ㅅ</text><text x="256.98" y="256.98">ㅇ</text><text x="160.005" y="264.0">ㅈ</text><text x="182.625" y="182.625">ㅊ</text><text x="57.375" y="182.625">ㅋ</text><text x="-24.0" y="160.005">ㅌ</text><text x="-24.0" y="79.995">ㅍ</text><text x="57.375" y="57.375">ㅎ</text></g></svg>