<?xml version="1.0" encoding="UTF-8"?>
<svg xmlns="http://www.w3.org/2000/svg" width="480" height="440" viewBox="0 0 480 440" shape-rendering="crispEdges">
<defs>
    <pattern id="gridMinor" width="40" height="40" patternUnits="userSpaceOnUse">
      <path d="M 40 0 L 0 0 0 40" fill="none" stroke="#e2e8f0" stroke-width="1" />
    </pattern>
    <pattern id="gridMajor" width="200" height="200" patternUnits="userSpaceOnUse">
      <path d="M 200 0 L 0 0 0 200" fill="none" stroke="#cbd5e1" stroke-width="1" />
    </pattern></defs>
<rect width="100%" height="100%" fill="white" />
<rect width="100%" height="100%" fill="url(#gridMinor)" />
<rect width="100%" height="100%" fill="url(#gridMajor)" />
<rect x="0" y="280" width="80" height="160" fill="#fecaca" fill-opacity="0.55" />
<line x1="80" y1="160" x2="0" y2="160" stroke="#111111" stroke-width="1.5" stroke-linecap="square" stroke-dasharray="6 4" />
<line x1="80" y1="280" x2="80" y2="160" stroke="#111111" stroke-width="1.5" stroke-linecap="square" stroke-dasharray="6 4" />
<line x1="0" y1="280" x2="80" y2="280" stroke="#111111" stroke-width="1.5" stroke-linecap="square" stroke-dasharray="6 4" />
<line x1="0" y1="280" x2="0" y2="160" stroke="#111111" stroke-width="3.5" stroke-linecap="square"  />
<line x1="80" y1="160" x2="240" y2="160" stroke="#111111" stroke-width="3.5" stroke-linecap="square"  />
<line x1="240" y1="280" x2="240" y2="160" stroke="#111111" stroke-width="1.5" stroke-linecap="square" stroke-dasharray="6 4" />
<line x1="240" y1="280" x2="80" y2="280" stroke="#111111" stroke-width="3.5" stroke-linecap="square"  />
<line x1="240" y1="160" x2="320" y2="160" stroke="#111111" stroke-width="3.5" stroke-linecap="square"  />
<line x1="320" y1="280" x2="320" y2="160" stroke="#111111" stroke-width="1.5" stroke-linecap="square" stroke-dasharray="6 4" />
<line x1="320" y1="280" x2="240" y2="280" stroke="#111111" stroke-width="3.5" stroke-linecap="square"  />
<line x1="320" y1="160" x2="480" y2="160" stroke="#111111" stroke-width="3.5" stroke-linecap="square"  />
<line x1="480" y1="160" x2="480" y2="280" stroke="#111111" stroke-width="3.5" stroke-linecap="square"  />
<line x1="480" y1="280" x2="320" y2="280" stroke="#111111" stroke-width="3.5" stroke-linecap="square"  />
<line x1="0" y1="0" x2="80" y2="0" stroke="#111111" stroke-width="3.5" stroke-linecap="square"  />
<line x1="80" y1="0" x2="80" y2="160" stroke="#111111" stroke-width="3.5" stroke-linecap="square"  />
<line x1="0" y1="160" x2="0" y2="0" stroke="#111111" stroke-width="3.5" stroke-linecap="square"  />
<line x1="80" y1="280" x2="80" y2="440" stroke="#111111" stroke-width="3.5" stroke-linecap="square"  />
<line x1="80" y1="440" x2="0" y2="440" stroke="#111111" stroke-width="3.5" stroke-linecap="square"  />
<line x1="0" y1="440" x2="0" y2="280" stroke="#111111" stroke-width="3.5" stroke-linecap="square"  />
</svg>